<mxfile host="app.diagrams.net" modified="2024-07-05T18:56:44.954Z" agent="Mozilla/5.0 (Windows NT 10.0; Win64; x64) AppleWebKit/537.36 (KHTML, like Gecko) Chrome/126.0.0.0 Safari/537.36" etag="OKbNZ01nE8yXMx7DM4wY" version="24.5.4" type="github">
  <diagram name="Page-1" id="Y3cnq59YHtRg9RW9AYRR">
    <mxGraphModel dx="1120" dy="434" grid="1" gridSize="10" guides="1" tooltips="1" connect="1" arrows="1" fold="1" page="1" pageScale="1" pageWidth="1169" pageHeight="827" math="0" shadow="0">
      <root>
        <mxCell id="0" />
        <mxCell id="1" parent="0" />
        <mxCell id="0dlBH19iJN63hmX0zeOj-1" value="User" style="shape=umlActor;verticalLabelPosition=bottom;verticalAlign=top;html=1;outlineConnect=0;" parent="1" vertex="1">
          <mxGeometry x="40" y="260" width="30" height="60" as="geometry" />
        </mxCell>
        <mxCell id="0dlBH19iJN63hmX0zeOj-11" value="Add Tasks" style="ellipse;whiteSpace=wrap;html=1;" parent="1" vertex="1">
          <mxGeometry x="300" y="50" width="50" height="50" as="geometry" />
        </mxCell>
        <mxCell id="0dlBH19iJN63hmX0zeOj-13" value="View Tasks" style="ellipse;whiteSpace=wrap;html=1;" parent="1" vertex="1">
          <mxGeometry x="295" y="170" width="60" height="50" as="geometry" />
        </mxCell>
        <mxCell id="0dlBH19iJN63hmX0zeOj-14" value="Edit Tasks" style="ellipse;whiteSpace=wrap;html=1;" parent="1" vertex="1">
          <mxGeometry x="295" y="260" width="60" height="40" as="geometry" />
        </mxCell>
        <mxCell id="0dlBH19iJN63hmX0zeOj-15" value="Delete Tasks" style="ellipse;whiteSpace=wrap;html=1;" parent="1" vertex="1">
          <mxGeometry x="290" y="340" width="65" height="50" as="geometry" />
        </mxCell>
        <mxCell id="0dlBH19iJN63hmX0zeOj-25" value="" style="endArrow=classic;html=1;rounded=0;" parent="1" source="0dlBH19iJN63hmX0zeOj-1" target="0dlBH19iJN63hmX0zeOj-11" edge="1">
          <mxGeometry width="50" height="50" relative="1" as="geometry">
            <mxPoint x="70" y="270" as="sourcePoint" />
            <mxPoint x="138" y="208" as="targetPoint" />
          </mxGeometry>
        </mxCell>
        <mxCell id="0dlBH19iJN63hmX0zeOj-26" value="" style="endArrow=classic;html=1;rounded=0;" parent="1" source="0dlBH19iJN63hmX0zeOj-11" target="0dlBH19iJN63hmX0zeOj-13" edge="1">
          <mxGeometry width="50" height="50" relative="1" as="geometry">
            <mxPoint x="316.03999999999996" y="230" as="sourcePoint" />
            <mxPoint x="400" y="268" as="targetPoint" />
          </mxGeometry>
        </mxCell>
        <mxCell id="0dlBH19iJN63hmX0zeOj-28" value="&amp;lt;&amp;lt;extend&amp;gt;&amp;gt;" style="edgeLabel;html=1;align=center;verticalAlign=middle;resizable=0;points=[];" parent="0dlBH19iJN63hmX0zeOj-26" vertex="1" connectable="0">
          <mxGeometry x="0.0806" y="4" relative="1" as="geometry">
            <mxPoint as="offset" />
          </mxGeometry>
        </mxCell>
        <mxCell id="0dlBH19iJN63hmX0zeOj-29" value="" style="endArrow=classic;html=1;rounded=0;entryX=0;entryY=0.675;entryDx=0;entryDy=0;entryPerimeter=0;" parent="1" source="0dlBH19iJN63hmX0zeOj-1" target="0dlBH19iJN63hmX0zeOj-13" edge="1">
          <mxGeometry width="50" height="50" relative="1" as="geometry">
            <mxPoint x="70" y="270" as="sourcePoint" />
            <mxPoint x="288" y="280" as="targetPoint" />
          </mxGeometry>
        </mxCell>
        <mxCell id="0dlBH19iJN63hmX0zeOj-30" value="" style="endArrow=classic;html=1;rounded=0;entryX=0.058;entryY=0.2;entryDx=0;entryDy=0;entryPerimeter=0;" parent="1" source="0dlBH19iJN63hmX0zeOj-1" target="0dlBH19iJN63hmX0zeOj-14" edge="1">
          <mxGeometry width="50" height="50" relative="1" as="geometry">
            <mxPoint x="70" y="270" as="sourcePoint" />
            <mxPoint x="380" y="324" as="targetPoint" />
          </mxGeometry>
        </mxCell>
        <mxCell id="0dlBH19iJN63hmX0zeOj-33" value="" style="endArrow=classic;html=1;rounded=0;" parent="1" source="0dlBH19iJN63hmX0zeOj-1" target="0dlBH19iJN63hmX0zeOj-15" edge="1">
          <mxGeometry width="50" height="50" relative="1" as="geometry">
            <mxPoint x="70" y="270" as="sourcePoint" />
            <mxPoint x="380" y="444" as="targetPoint" />
          </mxGeometry>
        </mxCell>
        <mxCell id="0dlBH19iJN63hmX0zeOj-53" value="Incomplete" style="ellipse;whiteSpace=wrap;html=1;" parent="1" vertex="1">
          <mxGeometry x="370" y="500" width="80" height="40" as="geometry" />
        </mxCell>
        <mxCell id="r478PZ6NpbQYcBBYsa4f-1" value="" style="endArrow=classic;html=1;rounded=0;" parent="1" source="0dlBH19iJN63hmX0zeOj-13" target="0dlBH19iJN63hmX0zeOj-14" edge="1">
          <mxGeometry width="50" height="50" relative="1" as="geometry">
            <mxPoint x="293" y="210" as="sourcePoint" />
            <mxPoint x="280" y="240" as="targetPoint" />
          </mxGeometry>
        </mxCell>
        <mxCell id="r478PZ6NpbQYcBBYsa4f-2" value="&amp;lt;&amp;lt;extend&amp;gt;&amp;gt;" style="edgeLabel;html=1;align=center;verticalAlign=middle;resizable=0;points=[];" parent="r478PZ6NpbQYcBBYsa4f-1" vertex="1" connectable="0">
          <mxGeometry x="0.0806" y="4" relative="1" as="geometry">
            <mxPoint as="offset" />
          </mxGeometry>
        </mxCell>
        <mxCell id="G3OjM1v9HhuYm1SzWa8n-1" value="" style="endArrow=classic;html=1;rounded=0;" edge="1" parent="1">
          <mxGeometry width="50" height="50" relative="1" as="geometry">
            <mxPoint x="322" y="300" as="sourcePoint" />
            <mxPoint x="322" y="340" as="targetPoint" />
          </mxGeometry>
        </mxCell>
        <mxCell id="G3OjM1v9HhuYm1SzWa8n-2" value="&amp;lt;&amp;lt;extend&amp;gt;&amp;gt;" style="edgeLabel;html=1;align=center;verticalAlign=middle;resizable=0;points=[];" vertex="1" connectable="0" parent="G3OjM1v9HhuYm1SzWa8n-1">
          <mxGeometry x="0.0806" y="4" relative="1" as="geometry">
            <mxPoint as="offset" />
          </mxGeometry>
        </mxCell>
        <mxCell id="G3OjM1v9HhuYm1SzWa8n-3" value="Set Priority" style="ellipse;whiteSpace=wrap;html=1;" vertex="1" parent="1">
          <mxGeometry x="450" y="50" width="50" height="50" as="geometry" />
        </mxCell>
        <mxCell id="G3OjM1v9HhuYm1SzWa8n-4" value="" style="endArrow=classic;html=1;rounded=0;exitX=1;exitY=0.5;exitDx=0;exitDy=0;" edge="1" parent="1" source="0dlBH19iJN63hmX0zeOj-11" target="G3OjM1v9HhuYm1SzWa8n-3">
          <mxGeometry width="50" height="50" relative="1" as="geometry">
            <mxPoint x="380" y="80" as="sourcePoint" />
            <mxPoint x="380" y="120" as="targetPoint" />
          </mxGeometry>
        </mxCell>
        <mxCell id="G3OjM1v9HhuYm1SzWa8n-5" value="Include" style="edgeLabel;html=1;align=center;verticalAlign=middle;resizable=0;points=[];" vertex="1" connectable="0" parent="G3OjM1v9HhuYm1SzWa8n-4">
          <mxGeometry x="0.0806" y="4" relative="1" as="geometry">
            <mxPoint as="offset" />
          </mxGeometry>
        </mxCell>
      </root>
    </mxGraphModel>
  </diagram>
</mxfile>
